<?xml version="1.0" encoding="UTF-8" standalone="no"?>
<svg xmlns:rdf="http://www.w3.org/1999/02/22-rdf-syntax-ns#" xmlns="http://www.w3.org/2000/svg" height="26.904mm" width="22.368mm" version="1.1" xmlns:cc="http://creativecommons.org/ns#" xmlns:dc="http://purl.org/dc/elements/1.1/" viewBox="0 0 79.255179 95.328455">
 <metadata>
  <rdf:RDF>
   <cc:Work rdf:about="">
    <dc:format>image/svg+xml</dc:format>
    <dc:type rdf:resource="http://purl.org/dc/dcmitype/StillImage"/>
    <dc:title/>
   </cc:Work>
  </rdf:RDF>
 </metadata>
 <g transform="translate(-43.23 38.159)">
  <g transform="matrix(.76502 0 0 .76502 -240.45 -177.51)">
   <ellipse style="stroke-linejoin:round;stroke:#000;stroke-linecap:round;stroke-width:1.25;fill:#dbd37a" rx="23.715" ry="29.295" cy="236.3" cx="418.84"/>
   <ellipse style="stroke-linejoin:round;stroke:#000;stroke-linecap:round;stroke-width:1.25;fill:#fff" rx="6.2774" ry="12.555" cy="242.57" cx="418.84"/>
   <rect style="stroke-linejoin:round;stroke:#000;stroke-linecap:round;stroke-width:1.25;fill:#ac6c28" height="4.0106" width="35.398" y="267.16" x="401.15"/>
   <rect style="stroke-linejoin:round;stroke:#000;stroke-linecap:round;stroke-width:1.25;fill:#ac6c28" height="4.7081" width="40.106" y="271.17" x="398.79"/>
   <rect style="stroke-linejoin:round;stroke:#000;stroke-linecap:round;stroke-width:1.25;fill:#ac6c28" height="4.0106" width="35.572" y="276.58" x="401.06"/>
   <rect style="stroke-linejoin:round;stroke:#000;stroke-linecap:round;stroke-width:1.25;fill:#ac6c28" height="4.5337" width="42.198" y="280.94" x="397.75"/>
   <rect style="stroke-linejoin:round;stroke:#000;stroke-linecap:round;stroke-width:1.25;fill:#ac6c28" height="3.8362" width="35.921" y="285.99" x="400.88"/>
   <rect style="stroke-linejoin:round;stroke:#000;stroke-linecap:round;stroke-width:1.25;fill:#ac6c28" height="4.185" width="40.803" y="290.18" x="398.44"/>
   <rect style="stroke-linejoin:round;stroke:#000;stroke-linecap:round;stroke-width:1.25;fill:#ac6c28" height="2.6156" width="35.223" y="294.54" x="401.23"/>
   <rect style="stroke-linejoin:round;stroke:#000;stroke-linecap:round;stroke-width:1.25;fill:#ac6c28" height="2.2669" width="30.515" y="296.98" x="403.59"/>
   <rect style="stroke-linejoin:round;stroke:#000;stroke-linecap:round;stroke-width:1.25;fill:#ac6c28" height="1.9181" width="25.11" y="299.59" x="406.29"/>
   <path d="m384.67 258.27s-8.7187 0-8.7187-2.4412" style="stroke:#000;stroke-width:1px;fill:none"/>
   <path d="m388.15 221.65s-8.0212-6.6262-8.0212-9.4162" style="stroke:#000;stroke-width:1px;fill:none"/>
   <path d="m413.26 199.68s-2.79-9.4162 0-12.555" style="stroke:#000;stroke-width:1px;fill:none"/>
   <path d="m442.56 201.07s-2.0925-6.9749 4.185-11.16" style="stroke:#000;stroke-width:1px;fill:none"/>
   <path d="m458.25 230.37s8.0212-10.114 11.16-6.6262" style="stroke:#000;stroke-width:1px;fill:none"/>
   <path d="m455.46 253.04s9.7649 1.7437 11.16 0" style="stroke:#000;stroke-width:1px;fill:none"/>
  </g>
 </g>
</svg>
