<?xml version="1.0" encoding="UTF-8" standalone="no"?>
<svg xmlns:rdf="http://www.w3.org/1999/02/22-rdf-syntax-ns#" xmlns="http://www.w3.org/2000/svg" height="20.831mm" width="26.538mm" version="1.1" xmlns:cc="http://creativecommons.org/ns#" xmlns:dc="http://purl.org/dc/elements/1.1/" viewBox="0 0 94.033122 73.810134">
 <metadata>
  <rdf:RDF>
   <cc:Work rdf:about="">
    <dc:format>image/svg+xml</dc:format>
    <dc:type rdf:resource="http://purl.org/dc/dcmitype/StillImage"/>
    <dc:title/>
   </cc:Work>
  </rdf:RDF>
 </metadata>
 <g transform="translate(-364.41 -452.6)">
  <g transform="matrix(.35979 0 0 .35979 1284.5 -63.844)">
   <path style="stroke-linejoin:round;stroke:#000;stroke-linecap:round;stroke-width:1.25;fill:#d39898" d="m-2345.3 1437a18.832 39.408 79.384 0 0 -15.357 1.3672 18.832 39.408 79.384 0 0 -27.078 11.121 16.74 9.4162 0 0 0 -12.348 -3.0742 16.74 9.4162 0 0 0 -12.307 3.0488 11.16 14.647 0 0 0 -5.1309 -1.6543 11.16 14.647 0 0 0 -10.734 10.695 17.437 8.7187 0 0 0 -3.9141 -0.2325 17.437 8.7187 0 0 0 -3.2441 0.1582 16.042 9.4162 0 0 0 -14.193 -5.041 16.042 9.4162 0 0 0 -9.4531 1.8242 12.904 25.807 0 0 0 -9.0293 -7.4043 12.904 25.807 0 0 0 -12.59 20.229 23.366 16.042 0 0 0 -23.09 13.875 26.853 29.643 0 0 0 -9.6582 -2.0176 26.853 29.643 0 0 0 -26.854 29.643 26.853 29.643 0 0 0 0.2324 3.5996 20.227 21.622 0 0 0 -12.09 19.768 20.227 21.622 0 0 0 2.2344 9.8692 22.669 21.622 0 0 0 5.1895 11.697 21.622 15.345 0 0 0 -10.91 13.307 21.622 15.345 0 0 0 8.4434 12.143 19.181 17.786 0 0 0 -0.7715 4.9472 19.181 17.786 0 0 0 19.182 17.785 19.181 17.786 0 0 0 1.9688 -0.1133 11.16 9.4162 0 0 0 10.236 5.6934 11.16 9.4162 0 0 0 10.869 -7.3164 8.0212 8.7187 0 0 0 0.9882 -4.1914 8.0212 8.7187 0 0 0 -5.3007 -8.1914 19.181 17.786 0 0 0 0.1015 -0.5352 16.042 16.74 0 0 0 11.457 -15.615 21.622 21.274 0 0 0 12.453 -13.881 16.74 12.904 0 0 0 2.9121 0.209 16.74 12.904 0 0 0 16.74 -12.904 16.74 12.904 0 0 0 -0.4922 -3.0469 27.202 18.135 0 0 0 0.4278 -0.3164 10.811 8.7187 0 0 0 8.4336 -8.4941 10.811 8.7187 0 0 0 -0.1133 -1.1875 20.227 12.206 0 0 0 2.9023 0.1425 20.227 12.206 0 0 0 20.228 -12.207 20.227 12.206 0 0 0 -0.6718 -3.0859 26.505 13.601 0 0 0 2.5312 -1.8535 9.7649 11.509 0 0 0 6.2246 -6.1016 10.811 14.647 0 0 0 4.3047 -5.4785 10.811 11.16 0 0 0 9.2324 -11.031 10.811 11.16 0 0 0 -0.3515 -2.7949 14.647 5.5799 0 0 0 13.719 -4.0312 24.064 17.786 0 0 0 1.4512 -0.4805 17.437 8.7187 0 0 0 8.1992 1.0293 17.437 8.7187 0 0 0 17.084 -6.9746 14.299 12.555 0 0 0 0.01 0 14.299 12.555 0 0 0 9.6368 -3.2988 18.832 39.408 79.384 0 0 9.875 -1.209 18.832 39.408 79.384 0 0 22.598 -8.1133 22.32 11.16 29.159 0 0 4.416 2.8359 22.32 11.16 29.159 0 0 6.6914 3.0137 21.274 7.6724 49.214 0 0 1.6543 2.0176 21.274 7.6724 49.214 0 0 9.25 8.4785 19.879 4.8825 87.838 0 0 0.051 2.7363 19.879 4.8825 87.838 0 0 3.2735 17.473 3.4875 17.089 38.115 0 0 -7.7637 8.4394 3.4875 17.089 38.115 0 0 -6.8438 10.533 2.79 16.391 63.899 0 0 -6.9863 3.0645 2.79 16.391 63.899 0 0 -13.49 9.7168 2.79 16.391 63.899 0 0 15.945 -4.7071 2.79 16.391 63.899 0 0 13.492 -9.7167 2.79 16.391 63.899 0 0 -0.2891 -0.2481 3.4875 17.089 38.115 0 0 3.6582 -4.3379 3.4875 17.089 38.115 0 0 7.8047 -15.598 3.4875 17.089 38.115 0 0 -0.1328 -0.07 19.879 4.8825 87.838 0 0 1.1074 -14.26 21.274 7.6724 49.214 0 0 0.6309 -0.4082 21.274 7.6724 49.214 0 0 -2.2989 -13.053 19.879 4.8825 87.838 0 0 -0.6543 -2.3105 22.32 11.16 29.159 0 0 -14.225 -20.254 22.32 11.16 29.159 0 0 -2.7265 -1.3867 18.832 39.408 79.384 0 0 -26.744 -12.232z"/>
   <path style="stroke-linejoin:round;stroke:#000;stroke-linecap:round;stroke-width:1.25;fill:#d39898" d="m-2394.5 1493.9a6.9749 14.299 0 0 0 -5.5273 5.6035 13.95 14.996 0 0 0 -13.102 12.514 9.4162 18.484 0 0 0 -2.5449 3.8105 12.555 25.11 0 0 0 -1.8438 -0.3047 12.555 25.11 0 0 0 -11.228 13.94 12.904 14.299 0 0 0 -8.1133 8.4473 17.437 14.647 0 0 0 -1.5839 -0.068 17.437 14.647 0 0 0 -17.438 14.648 17.437 14.647 0 0 0 0.01 0.1172 12.555 20.925 0 0 0 -0.5976 1.3106 12.904 18.832 0 0 0 -0.4532 -0.033 12.904 18.832 0 0 0 -10.022 6.9941 19.53 16.74 0 0 0 -18.816 14.986 9.4162 14.647 0 0 0 -1.7324 4.8731 14.647 10.462 0 0 0 -10.932 10.113 14.647 10.462 0 0 0 0.086 1.0312 9.4162 5.2312 0 0 0 -1.4805 2.8047 9.4162 5.2312 0 0 0 3.5352 4.0801 11.509 11.16 0 0 0 10.566 10.176 8.3699 17.089 0 0 0 -0.1523 3.1816 8.3699 17.089 0 0 0 0.096 2.4629 13.252 14.996 0 0 0 -0.096 1.7227 13.252 14.996 0 0 0 13.252 14.996 13.252 14.996 0 0 0 0.6699 -0.027 20.227 13.95 0 0 0 15.373 4.9102 20.227 13.95 0 0 0 6.8144 -0.8301 14.299 11.16 0 0 0 4.1914 0.7832 17.786 13.252 0 0 0 10.965 2.8359 17.786 13.252 0 0 0 6.6074 -0.9551 13.252 3.4875 0 0 0 9.086 0.9551 13.252 3.4875 0 0 0 12.004 -2.0176 5.2312 7.3237 0 0 0 2.9921 1.3204 5.2312 7.3237 0 0 0 5.1582 -6.1621 13.601 9.7649 0 0 0 3.7227 -4.4063 9.4162 11.16 0 0 0 6.1406 -4.0898 20.576 12.904 0 0 0 12.926 -8.2422 21.622 22.669 0 0 0 3.7461 -2.2383 21.274 18.135 0 0 0 20.272 -18.106 21.274 18.135 0 0 0 -0.957 -5.3183 22.32 24.412 0 0 0 3.4414 -9.6856 20.227 15.345 0 0 0 5.8847 -10.803 20.227 15.345 0 0 0 -3.3711 -8.4668 25.458 22.32 0 0 0 3.3711 -11.064 25.458 22.32 0 0 0 -17.467 -21.172 20.925 27.551 0 0 0 0.029 -0.7989 20.925 27.551 0 0 0 -20.924 -27.551 20.925 27.551 0 0 0 -6.3906 1.3516 6.9749 14.299 0 0 0 -6.1641 -7.6289zm-24.154 137.65a17.786 11.16 0 0 0 0.5606 0.09 13.601 9.7649 0 0 0 0.5195 0.3809 13.252 3.4875 0 0 0 -1.3398 -0.018 13.252 3.4875 0 0 0 -0.035 0 17.786 13.252 0 0 0 0.2949 -0.4531z"/>
   <path d="m-2516.6 1572c0 4.2476-42.712-7.0235 0-30.69 38.208-21.17-21.68-0.5412 0-13.95 30.559-18.9 47.276-2.2794 9.7649-11.857-20.965-5.3532 56.997-51.536 50.917-38.362" style="stroke:#000;stroke-width:1px;fill:none"/>
   <path d="m-2433.6 1625.7c-14.907-5.6758-18.316-9.9596-9.9095-13.216-7.821 0.5904-11.564 0.01-13.805-2.1285-8.9217-8.5124-25.11-30.69 1.395-36.967" style="stroke:#000;stroke-width:1px;fill:none"/>
   <path d="m-2423.1 1563.6s23.603-3.7775 23.715 9.7649c0.067 8.1993-7.5501 9.6679-13.951 9.4544-5.2132-0.1739-9.5861 0.544-11.856 5.8904-1.7247 4.0619-6.2774 17.437 16.042 18.832 22.32 1.395 9.7649 7.6725 9.7649 7.6725" style="stroke:#000;stroke-width:1px;fill:none"/>
   <path d="m-2377.8 1517.6s-35.064 45.607 9.0674 34.875c9.5143-2.3138-4.5982 3.679-3.4874 3.4875 0 0-6.9749 10.462 8.3699 17.437 15.345 6.9749-10.462-1.395-10.462-1.395s-3.4875 21.622-25.807 27.202" style="stroke:#000;stroke-width:1px;fill:none"/>
  </g>
 </g>
</svg>
