<?xml version="1.0" encoding="UTF-8" standalone="no"?>
<svg xmlns:rdf="http://www.w3.org/1999/02/22-rdf-syntax-ns#" xmlns="http://www.w3.org/2000/svg" height="27.832mm" width="5.0569mm" version="1.1" xmlns:cc="http://creativecommons.org/ns#" xmlns:dc="http://purl.org/dc/elements/1.1/" viewBox="0 0 17.918324 98.616683">
 <metadata>
  <rdf:RDF>
   <cc:Work rdf:about="">
    <dc:format>image/svg+xml</dc:format>
    <dc:type rdf:resource="http://purl.org/dc/dcmitype/StillImage"/>
    <dc:title/>
   </cc:Work>
  </rdf:RDF>
 </metadata>
 <g transform="translate(-39.612 -540.2)">
  <g transform="translate(-340.89 -91.304)">
   <path d="m381.08 632.08 0.3506 71.94c0.35063 12.546 3.8789 25.509 8.0315 25.522 4.1507-0.023 7.6763-12.984 8.0289-25.794l0.35254-71.668z" style="stroke-linejoin:round;stroke:#000;stroke-linecap:round;stroke-width:.44615;fill:#fff"/>
   <ellipse style="stroke-linejoin:round;stroke:#000;stroke-linecap:round;stroke-width:.52274;fill:#c448d8" rx="2.6252" ry="2.771" cy="698.68" cx="385.61"/>
   <ellipse style="stroke-linejoin:round;stroke:#000;stroke-linecap:round;stroke-width:.52274;fill:#c448d8" rx="5.3962" ry="5.6879" cy="681.7" cx="390.46"/>
   <ellipse style="stroke-linejoin:round;stroke:#000;stroke-linecap:round;stroke-width:.52274;fill:#c448d8" rx="2.0418" ry="1.6043" cy="664.54" cx="385.27"/>
   <ellipse style="stroke-linejoin:round;stroke:#000;stroke-linecap:round;stroke-width:.52274;fill:#c448d8" rx="6.2712" ry="6.4171" cy="644.91" cx="389.02"/>
   <path style="stroke-linejoin:round;stroke:#000;stroke-linecap:round;stroke-width:.44615;fill:#c448d8" d="m394.65 705.39a2.4416 2.7732 0 0 0 -1.8376 0.95067 11.677 12.552 0 0 0 -1.2407 -0.0752 11.677 12.552 0 0 0 -6.0504 1.8343 2.8662 3.6489 0 0 0 -2.3358 -1.5417 2.8662 3.6489 0 0 0 -1.5951 0.61962c0.79339 11.471 4.0715 22.35 7.8756 22.362 3.7032-0.0205 6.9068-10.34 7.8054-21.662a11.677 12.552 0 0 0 -0.20927 -0.13158 2.4416 2.7732 0 0 0 -2.412 -2.3558z"/>
  </g>
 </g>
</svg>
