<?xml version="1.0" encoding="UTF-8" standalone="no"?>
<svg xmlns:rdf="http://www.w3.org/1999/02/22-rdf-syntax-ns#" xmlns="http://www.w3.org/2000/svg" height="25.609mm" width="20.693mm" version="1.1" xmlns:cc="http://creativecommons.org/ns#" xmlns:dc="http://purl.org/dc/elements/1.1/" viewBox="0 0 73.322744 90.739257">
 <metadata>
  <rdf:RDF>
   <cc:Work rdf:about="">
    <dc:format>image/svg+xml</dc:format>
    <dc:type rdf:resource="http://purl.org/dc/dcmitype/StillImage"/>
    <dc:title/>
   </cc:Work>
  </rdf:RDF>
 </metadata>
 <g transform="translate(-311.91 47.293)">
  <g transform="matrix(.78649 0 0 .78649 -114.84 -176.11)">
   <path style="stroke-linejoin:round;stroke:#000;stroke-linecap:round;stroke-width:1.25;fill:#665543" d="m605.49 241.76c-1.2984 0.044-2.5682 0.20703-3.7734 0.46289l1.2051 6.9453c-0.58246 0.13919-2.7165 0.9417-3.752 1.9863-0.97747-0.57877-6.623-3.6641-6.623-3.6641-2.3195 2.4216-3.9976 5.4662-4.7559 8.8555l6.5918 3.6172c-1.6018 2.8441-0.68206 5.2044 1.0664 8.125-0.90188 1.1036-2.2347 2.8441-3.4004 4.918 1.3865 3.0767 5.1959 4.8666 7.6406 5.0723l2.7656-6.3125c0.54937 0.17359 2.3212 0.4063 3.627 0.40626 1.2536-0.00016 2.4594-0.2018 3.5918-0.56641l1.3828 6.3594c3.5251-1.1773 6.4816-2.9038 8.7383-5.1484l-4.0781-5.7051c0.61705-0.89142 1.1108-1.8728 1.1562-2.0332-0.08 0.25034 6.9395 1.3477 6.9395 1.3477 0.7345-2.1357 1.0737-4.5109 0.97656-7.1133l-7.2051-1.2305c-0.0732-0.54444-0.50081-1.8833-0.77539-2.4062 0.0296 0.056 4.9434-5.5059 4.9434-5.5059-1.318-2.0041-3.0097-3.7405-4.9766-5.1094l-4.8359 5.2422c-0.80884-0.66427-1.6036-1.0587-2.7949-1.1621l0.29297-7.1289c-1.3219-0.22103-2.6489-0.29598-3.9473-0.25195zm0.80859 13.838a4.3155 4.3155 0 0 1 4.3145 4.3144 4.3155 4.3155 0 0 1 -4.3145 4.3164 4.3155 4.3155 0 0 1 -4.3164 -4.3164 4.3155 4.3155 0 0 1 4.3164 -4.3144z"/>
   <path style="stroke-linejoin:round;stroke:#000;stroke-linecap:round;stroke-width:1.25;fill:#665543" d="m626.58 164.86a38.564 37.32 0 0 0 -25.334 11.715l5.4199 5.6934a30.579 29.592 0 0 0 -7.9141 19.816 30.579 29.592 0 0 0 0.043 1.2012l-7.7539 2.8652a38.564 37.32 0 0 0 12.504 23.629l5.3476-5.7285a30.579 29.592 0 0 0 20.438 7.625 30.579 29.592 0 0 0 5.4238 -0.49414v-15.764a14.108 13.653 0 0 1 -2.959 0.31836 14.108 13.653 0 0 1 -14.107 -13.652 14.108 13.653 0 0 1 14.107 -13.652 14.108 13.653 0 0 1 2.959 0.31054v-15.771a30.579 29.592 0 0 0 -5.4238 -0.47852 30.579 29.592 0 0 0 -0.42773 0.0156l-2.3223-7.6484z"/>
   <path d="m572.06 203.99c-0.21427 0.005-0.42848 0.0132-0.64258 0.0234l-1.5195 9.1016c-5.8328 0.41503-11.213 3.2946-14.793 7.918l-8.252-1.6562c-2.0806 4.0174-3.1708 8.4739-3.1797 12.998 0.008 0.85647 0.0538 1.7122 0.13867 2.5645l7.209 1.4473c0.77191 5.6019 3.8175 10.638 8.4199 13.924l-2.0762 6.3106c4.4284 2.6964 9.5107 4.1284 14.695 4.1406 0.30745-0.006 0.61478-0.0171 0.92187-0.0332l2.291-6.9629c6.3063-1.2249 12.2-4.8046 15.564-11.787l6.6146 2.218c2.8464-3.442 2.9835-8.313 2.9935-11.821-0.00036-0.65163-0.0232-1.3031-0.0684-1.9531l-8.7246 0.0488c-0.9601-6.2081-4.7063-11.636-10.17-14.736l1.5879-9.5195c-3.4851-1.4675-7.2283-2.2238-11.01-2.2246zm-0.69922 21.221c4.6308-0.00018 8.385 3.7539 8.3848 8.3848-0.002 3.7098-2.4417 6.9773-5.998 8.0332-2.5584 0.37117-5.1215 0.71924-8.3223-2.1211-1.5652-1.5697-2.4451-3.6954-2.4473-5.9121-0.00019-4.6301 3.7527-8.3839 8.3828-8.3848z" style="stroke-linejoin:round;stroke:#000;stroke-linecap:round;stroke-width:1.25;fill:#665543"/>
  </g>
 </g>
</svg>
