<?xml version="1.0" encoding="UTF-8" standalone="no"?>
<svg xmlns:rdf="http://www.w3.org/1999/02/22-rdf-syntax-ns#" xmlns="http://www.w3.org/2000/svg" height="23.096mm" width="25.768mm" version="1.1" xmlns:cc="http://creativecommons.org/ns#" xmlns:dc="http://purl.org/dc/elements/1.1/" viewBox="0 0 91.304159 81.834911">
 <metadata>
  <rdf:RDF>
   <cc:Work rdf:about="">
    <dc:format>image/svg+xml</dc:format>
    <dc:type rdf:resource="http://purl.org/dc/dcmitype/StillImage"/>
    <dc:title/>
   </cc:Work>
  </rdf:RDF>
 </metadata>
 <g transform="translate(157.08 -291.44)">
  <g transform="matrix(.65949 0 0 .65949 -287.07 47.503)">
   <path style="stroke-linejoin:round;stroke:#000;stroke-linecap:round;stroke-width:1.25;fill:#d0d0d0" d="m228.92 410.23v37.666c-0.0425 0.95355-0.0723 1.9125-0.0723 2.8828 0 0.97033 0.0298 1.9293 0.0723 2.8828v1.5762h0.082c1.4672 21.181 13.272 37.586 27.711 37.586h16.275c15.438 0 27.867-18.752 27.867-42.045 0-2.4867-0.15005-4.9173-0.42188-7.2832v-32.842c-1.7547 1.4219-8.8989 2.4824-17.506 2.4824h-36.154c-9.4423 0-17.119-1.2761-17.854-2.9062z"/>
   <ellipse style="stroke-linejoin:round;stroke:#000;stroke-linecap:round;stroke-width:.98016" rx="10.038" ry="4.4943" cy="442.23" cx="251.16"/>
   <ellipse style="stroke-linejoin:round;stroke:#000;stroke-linecap:round;stroke-width:.98016" rx="10.038" ry="4.4943" cy="442.23" cx="281.03"/>
   <path d="m238.02 437.17s-3.8362-0.34874-3.4875-4.0106" style="stroke:#000;stroke-width:1px;fill:none"/>
   <path d="m236.1 442.23s-3.6618-1.2206-3.1387-2.79" style="stroke:#000;stroke-width:1px;fill:none"/>
   <path d="m237.5 445.19s-3.8362 0.17438-4.185-1.2206" style="stroke:#000;stroke-width:1px;fill:none"/>
   <path d="m294.87 436.65s3.1387 0 3.6618-1.9181" style="stroke:#000;stroke-width:1px;fill:none"/>
   <path d="m295.21 441.18s3.6618-0.34875 4.185-1.5694" style="stroke:#000;stroke-width:1px;fill:none"/>
   <path d="m293.64 446.94s3.3131 1.395 4.5337 0" style="stroke:#000;stroke-width:1px;fill:none"/>
   <path d="m251.62 465.07c-2.9643 5.4056-12.759 7.4722-13.427-3.4875-0.22374-3.6716-5.2141-13.306-5.7543-12.032-1.9642 4.6336 4.5816 34.074 18.832 24.935 11.282-7.2351 12.769-6.9698 12.72-7.1158 0 0 8.3797 2.4438 10.994 5.7208 4.5225 5.6683 15.525 5.8624 21.971-5.9287 2.1748-3.978 1.0462-4.938 1.0462-10.114 0-0.25815-5.9287 12.042-8.3699 13.078-2.2474 0.95334-7.3237 2.79-9.2418-0.52312s-11.509-9.9393-15.921-8.9759c-4.4128 0.96339-9.8858-0.96338-12.85 4.4422z" style="fill-rule:evenodd;stroke:#000;stroke-width:1px"/>
   <path d="m261.82 479.18c2.1562-1.4747 8.1955 0.43593 8.1955 0.43593 5.5425 3.0614 10.753-2.0534 9.6777-1.8134-9.9972 2.2323-11.242-5.5065-15.955-5.9462-4.7126-0.43976-2.79 6.9749-14.822 5.9462-2.2408-0.1916 9.5381 3.6792 12.904 1.3775z" style="fill-rule:evenodd;stroke:#000;stroke-width:1px"/>
   <path d="m261.12 491.58c-1.3943-1.1453-3.4875-9.2418-2.6156-10.114 2.4449-0.0577 2.7698 5.4622 3.8362 1.395 0.69749-2.8772 0.41875-2.4426 1.5694-2.354 1.1506 0.0885 1.0462 2.7028 1.0462 2.7028s0.87186 1.7437 1.7437-0.78467c0.87186-2.5284 2.7398-1.8748 2.5284-0.43594-1.2962 4.1434-1.3914 9.6907-3.0515 10.288-1.6602 0.59734-3.6625 0.44783-5.0568-0.69749z" style="fill-rule:evenodd;stroke:#000;stroke-width:1px"/>
   <path d="m257.37 457.05s4.5337-6.9749 7.6724-6.6262c3.1387 0.34875 8.0212 5.58 6.6262 7.3237s-13.95 3.8362-14.299-0.69749z" style="fill-rule:evenodd;stroke:#000;stroke-width:1px"/>
   <path d="m234.81 371.06c-0.35214 4.4062-1.1582 11.022-1.1582 11.022-17.399 3.8974-35.357 3.8006-35.389 10.376-0.00065 11.44 30.471 16.53 68.061 16.53 37.59 0.00011 68.063-5.0894 68.062-16.53-0.0156-6.7433-17.79-6.0881-35.922-9.9634l-1.0703-11.434z" style="stroke-linejoin:round;stroke:#000;stroke-linecap:round;stroke-width:1.25"/>
  </g>
 </g>
</svg>
