<?xml version="1.0" encoding="UTF-8" standalone="no"?>
<svg xmlns:rdf="http://www.w3.org/1999/02/22-rdf-syntax-ns#" xmlns="http://www.w3.org/2000/svg" height="23.936mm" width="20.154mm" version="1.1" xmlns:cc="http://creativecommons.org/ns#" xmlns:dc="http://purl.org/dc/elements/1.1/" viewBox="0 0 71.411924 84.812628">
 <metadata>
  <rdf:RDF>
   <cc:Work rdf:about="">
    <dc:format>image/svg+xml</dc:format>
    <dc:type rdf:resource="http://purl.org/dc/dcmitype/StillImage"/>
    <dc:title/>
   </cc:Work>
  </rdf:RDF>
 </metadata>
 <g transform="translate(632.85 -467.1)">
  <g transform="matrix(.48327 0 0 .48327 -661.46 84.475)">
   <path style="stroke-linejoin:round;stroke:#000;stroke-linecap:round;stroke-width:1.25;fill:#ddb7b7" d="m175.33 807.6a6.8076 86.579 10.2 0 0 -22.044 84.133 6.8076 86.579 10.2 0 0 -2.8776 16.784l14.088-2.6332a6.8076 86.579 10.2 0 0 2.2343 -11.994 6.8076 86.579 10.2 0 0 8.5988 -86.29z"/>
   <path style="stroke-linejoin:round;stroke:#000;stroke-linecap:round;stroke-width:1.25;fill:#ddb7b7" d="m184.09 801.02a9.7649 86.838 10.992 0 0 -26.145 83.382 9.7649 86.838 10.992 0 0 -4.177 23.492l20.054-3.7466a9.7649 86.838 10.992 0 0 3.2951 -16.022 9.7649 86.838 10.992 0 0 6.9729 -87.106z"/>
   <path d="m193.62 797.38a9.7649 86.838 12.47 0 0 -28.286 82.681 9.7649 86.838 12.47 0 0 -5.5948 27.841l19.972-3.7325a9.7649 86.838 12.47 0 0 4.691 -19.892 9.7649 86.838 12.47 0 0 9.2172 -86.898z" style="stroke-linejoin:round;stroke:#000;stroke-linecap:round;stroke-width:1.25;fill:#ddb7b7"/>
   <path d="m203.17 793.13a10.85 100.61 12.47 0 0 -32.319 95.897 10.85 100.61 12.47 0 0 -3.5926 16.996l22.962-4.2914a10.85 100.61 12.47 0 0 1.8175 -8.0194 10.85 100.61 12.47 0 0 11.131 -100.58z" style="stroke-linejoin:round;stroke:#000;stroke-linecap:round;stroke-width:1.25;fill:#ddb7b7"/>
   <path d="m192 874.16c-9.225-2.04-31.991-4.6436-39.168 19.037-3.7627-8.5659-2.436-19.478-5.8664-22.464-7.8216-6.7911-11.056 16.127-6.957 38.029 2.5581 13.637 7.4349 28.479 12.914 39.302 1.5465 10.164 5.228 16.483 10.266 17.619 10.727 2.3728 19.559-15.701 25.883-44.295 6.3234-28.594 13.656-44.856 2.9291-47.228z" style="stroke-linejoin:round;stroke:#000;stroke-linecap:round;stroke-width:1.25;fill:#ddb7b7"/>
   <path style="stroke-linejoin:round;stroke:#000;stroke-linecap:round;stroke-width:1.25;fill:#ddb7b7" d="m91.042 807.44a86.579 6.8076 77.466 0 1 25.452 83.165 86.579 6.8076 77.466 0 1 3.5588 16.653l-14.184-2.0573a86.579 6.8076 77.466 0 1 -2.72 -11.9 86.579 6.8076 77.466 0 1 -12.108 -85.86z"/>
   <path style="stroke-linejoin:round;stroke:#000;stroke-linecap:round;stroke-width:1.25;fill:#ddb7b7" d="m82.023 801.21a86.838 9.7649 76.673 0 1 29.519 82.248 86.838 9.7649 76.673 0 1 5.1304 23.303l-20.19-2.9267a86.838 9.7649 76.673 0 1 -3.945 -15.874 86.838 9.7649 76.673 0 1 -10.515 -86.75z"/>
   <path style="stroke-linejoin:round;stroke:#000;stroke-linecap:round;stroke-width:1.25;fill:#ddb7b7" d="m72.356 797.97a86.838 9.7649 75.196 0 1 31.63 81.46 86.838 9.7649 75.196 0 1 6.7242 27.59l-20.108-2.916a86.838 9.7649 75.196 0 1 -5.497 -19.68 86.838 9.7649 75.196 0 1 -12.749 -86.45z"/>
   <path style="stroke-linejoin:round;stroke:#000;stroke-linecap:round;stroke-width:1.25;fill:#ddb7b7" d="m62.635 794.11a100.61 10.85 75.196 0 1 36.198 94.501 100.61 10.85 75.196 0 1 4.2819 16.836l-23.118-3.3526a100.61 10.85 75.196 0 1 -2.1426 -7.9388 100.61 10.85 75.196 0 1 -15.219 -100.05z"/>
   <path style="stroke-linejoin:round;stroke:#000;stroke-linecap:round;stroke-width:1.25;fill:#ddb7b7" d="m77.103 874.61c9.1343-2.4141 31.775-5.9428 39.911 17.426 3.4107-8.712 1.6407-19.561 4.9466-22.685 7.5385-7.104 11.703 15.663 8.5002 37.714-2.0005 13.73-6.2688 28.758-11.303 39.795-1.1312 10.219-4.5523 16.682-9.5398 18.022-10.622 2.8078-20.183-14.891-27.665-43.204-7.4827-28.312-15.472-44.263-4.8503-47.069z"/>
  </g>
 </g>
</svg>
