<?xml version="1.0" encoding="UTF-8" standalone="no"?>
<svg xmlns:rdf="http://www.w3.org/1999/02/22-rdf-syntax-ns#" xmlns="http://www.w3.org/2000/svg" height="26.463mm" width="13.294mm" version="1.1" xmlns:cc="http://creativecommons.org/ns#" xmlns:dc="http://purl.org/dc/elements/1.1/" viewBox="0 0 47.105872 93.766303">
 <metadata>
  <rdf:RDF>
   <cc:Work rdf:about="">
    <dc:format>image/svg+xml</dc:format>
    <dc:type rdf:resource="http://purl.org/dc/dcmitype/StillImage"/>
    <dc:title/>
   </cc:Work>
  </rdf:RDF>
 </metadata>
 <g transform="translate(603.55 -242.62)">
  <g transform="matrix(.61144 0 0 .61144 -652.93 -10.3)">
   <path style="stroke-linejoin:round;stroke:#000;stroke-linecap:round;stroke-width:1.25" d="m108.6 414.85c-7.9993 0-14.439 9.0206-14.439 20.227v15.346c0 11.206 6.4402 20.227 14.439 20.227h21.34c7.9993 0 14.439-9.0206 14.439-20.227v-15.346c0-11.206-6.4402-20.227-14.439-20.227h-21.34zm3.4688 9.0742h14.4c5.3976 0 9.7441 6.0871 9.7441 13.648v10.354c0 7.5613-4.3465 13.648-9.7441 13.648h-14.4c-5.3976 0-9.7422-6.0871-9.7422-13.648v-10.354c0-7.5613 4.3446-13.648 9.7422-13.648z"/>
   <rect style="stroke-linejoin:round;stroke:#000;stroke-linecap:round;stroke-width:1.25" rx="0" ry="0" height="57.194" width="74.632" y="451.68" x="81.955"/>
   <path d="m103.07 559.46 15.402-65.912-22.166 72.517z" style="stroke:#000;stroke-width:1px;fill:none"/>
   <path d="m144.77 560.52s-15.222-60.532-16.407-61.204c-1.1842-0.67244-10.416-0.91727-6.8527 3.3248 2.8811 3.43 7.4517-0.35801 6.2359 5.2806-0.92876 4.3075-4.6142 0.12211-3.7436 4.9045 0.33519 1.8409 7.722-0.79419 6.5619 3.0991-0.73875 2.4792-4.843-1.0125-3.2797 5.5314 1.0787 4.5154 4.6418-2.9646 5.8362 2.4071 1.5464 6.954-4.3329 2.8556-3.6271 7.2122 1.0029 6.191 5.0891-3.2844 6.3293 2.8644 0.66307 3.2872-6.175 0.91425-4.5334 6.4591 1.3708 4.63 5.9463-1.6866 7.7339 3.8486 1.2383 3.8342-6.2098-0.38627-3.3837 6.9584 2.0724 5.3859 4.9554-0.93156 6.0426 3.8197 2.0583 8.9953-6.2606 0.30704-4.127 6.7579 2.359 7.1322 7.2138-1.2638 7.2138-1.2638z" style="stroke:#000;stroke-width:1px;fill:none"/>
  </g>
 </g>
</svg>
