<?xml version="1.0" encoding="UTF-8" standalone="no"?>
<svg xmlns:rdf="http://www.w3.org/1999/02/22-rdf-syntax-ns#" xmlns="http://www.w3.org/2000/svg" height="28.234mm" width="30.696mm" version="1.1" xmlns:cc="http://creativecommons.org/ns#" xmlns:dc="http://purl.org/dc/elements/1.1/" viewBox="0 0 108.76675 100.04017">
 <metadata>
  <rdf:RDF>
   <cc:Work rdf:about="">
    <dc:format>image/svg+xml</dc:format>
    <dc:type rdf:resource="http://purl.org/dc/dcmitype/StillImage"/>
    <dc:title/>
   </cc:Work>
  </rdf:RDF>
 </metadata>
 <g transform="translate(385.81 -868.06)">
  <g transform="translate(-612.06 239.04)">
   <ellipse style="stroke-linejoin:round;stroke:#000;stroke-linecap:round;stroke-width:.80738;fill:#274ba8" rx="50.007" ry="16.669" cy="706.16" cx="277.02"/>
   <path d="m255.86 709.31c-0.92573-14.394 13.053-79.633 16.313-79.62 3.2603 0.0129 24.573 62.115 26.035 78.719 0.43387 4.9272-42.005 6.2426-42.348 0.90104z" style="fill-rule:evenodd;stroke:#000;stroke-width:.64591px;fill:#272696"/>
   <path style="stroke-linejoin:round;stroke:#000;stroke-linecap:round;stroke-width:.80738;fill:#fff" d="m289.2 684.99-1.634 5.4771 3.5856 4.4511-5.714 0.13853-3.1252 4.7856-1.8975-5.3915-5.5171-1.4934 4.5413-3.4707-0.28453-5.7086 4.7041 3.2465z"/>
   <path style="fill-rule:evenodd;stroke:#000;stroke-width:.64591px;fill:#fff" d="m265.33 654.54-1.1303 3.637-0.50587 0.15773c-0.19993 0.90847-0.39692 1.8408-0.59544 2.7652l0.574 0.40621-0.0479 3.8074 3.0516-2.2771 3.6055 1.2224-1.2224-3.6067 2.2771-3.0516-3.8073 0.0491-2.1989-3.1096z"/>
   <path style="fill-rule:evenodd;stroke:#000;stroke-width:.64591px;fill:#fff" d="m273.78 640.63-0.38603 2.9659-2.6618 1.365 2.7022 1.283 0.4756 2.9545 2.055-2.1737 2.9558 0.46047-1.4318-2.6265 1.1089-2.1913c-0.0535-0.13648-0.10587-0.26754-0.15895-0.4024l-2.5395 0.47558-2.1194-2.1106z"/>
   <path style="fill-rule:evenodd;stroke:#000;stroke-width:.64591px;fill:#fff" d="m262.33 687.23-2.8725 6.261-2.3452 0.40873c-0.21304 1.5209-0.39625 2.9619-0.56139 4.346l1.1871 1.0938-0.97139 6.8186 6.0024-3.3758 6.1853 3.0314-1.3562-6.753 4.7938-4.9452-6.84-0.79731-3.222-6.0882z"/>
   <path style="stroke-linejoin:round;stroke:#000;stroke-linecap:round;stroke-width:.80738;fill:#fff" d="m277.49 672.82-1.2194 2.9372 1.7283 2.6696-3.1702-0.25208-2.0049 2.4686-0.73991-3.093-2.9674-1.1439 2.7129-1.6595 0.17098-3.1756 2.4166 2.0674z"/>
   <path style="fill-rule:evenodd;stroke:#000;stroke-width:.64591px;fill:#fff" d="m281.76 657.59-0.63077 1.6261-1.698 0.40117 1.3511 1.1026-0.14255 1.7384 1.4672-0.94361 1.6085 0.67368-0.44406-1.6879 1.1379-1.3221-1.7422-0.0984-0.90704-1.4899z"/>
   <path d="m256.53 721.56 1.4864 6.694 75.567-17.886c0.63347-0.68123 0.88169-2.0165 0.64611-3.0809-0.23565-1.0645-0.57338-1.9192-1.6751-2.7481l-76.025 17.02z" style="stroke-linejoin:round;stroke:#000;stroke-linecap:round;stroke-width:.68868;fill:#fff"/>
   <path style="stroke-linejoin:round;stroke:#000;stroke-linecap:round;stroke-width:.60209" d="m256.54 721.88 1.3498 6.0788 63.908-14.775c0.83669-0.29447 1.6128-1.8373 1.2713-3.384-0.34426-1.5471-1.6977-2.6022-2.5778-2.5014l-63.951 14.582z"/>
   <ellipse style="stroke-linejoin:round;stroke:#000;stroke-linecap:round;stroke-width:.47778;fill:#fff" rx="1.5816" transform="matrix(.97464 -.22378 .21678 .97622 0 0)" ry="3.539" cy="764.12" cx="93.65"/>
  </g>
 </g>
</svg>
