<?xml version="1.0" encoding="UTF-8" standalone="no"?>
<svg xmlns:rdf="http://www.w3.org/1999/02/22-rdf-syntax-ns#" xmlns="http://www.w3.org/2000/svg" height="20.073mm" width="23.187mm" version="1.1" xmlns:cc="http://creativecommons.org/ns#" xmlns:dc="http://purl.org/dc/elements/1.1/" viewBox="0 0 82.158946 71.124357">
 <metadata>
  <rdf:RDF>
   <cc:Work rdf:about="">
    <dc:format>image/svg+xml</dc:format>
    <dc:type rdf:resource="http://purl.org/dc/dcmitype/StillImage"/>
    <dc:title/>
   </cc:Work>
  </rdf:RDF>
 </metadata>
 <g transform="translate(-224.63 -222.51)">
  <path style="stroke-linejoin:round;stroke:#000;stroke-linecap:round;stroke-width:.91708;fill:#265d2c" d="m266.46 223.33a40.266 40.266 0 0 0 -37.722 24.33 40.266 40.266 0 0 0 8.2351 44.124l17.043-16.717a16.496 16.496 0 0 1 -4.776 -11.598 16.496 16.496 0 0 1 16.496 -16.496 16.496 16.496 0 0 1 16.496 16.496 16.496 16.496 0 0 1 -5.2302 12.032l16.407 17.32a40.266 40.266 0 0 0 9.8514 -43.792 40.266 40.266 0 0 0 -36.801 -25.7z"/>
 </g>
</svg>
