<?xml version="1.0" encoding="UTF-8" standalone="no"?>
<svg xmlns:rdf="http://www.w3.org/1999/02/22-rdf-syntax-ns#" xmlns="http://www.w3.org/2000/svg" height="21.557mm" width="17.982mm" version="1.1" xmlns:cc="http://creativecommons.org/ns#" xmlns:dc="http://purl.org/dc/elements/1.1/" viewBox="0 0 63.715533 76.382007">
 <metadata>
  <rdf:RDF>
   <cc:Work rdf:about="">
    <dc:format>image/svg+xml</dc:format>
    <dc:type rdf:resource="http://purl.org/dc/dcmitype/StillImage"/>
    <dc:title/>
   </cc:Work>
  </rdf:RDF>
 </metadata>
 <g transform="translate(349 -14.171)">
  <path style="stroke-linejoin:round;stroke:#000;stroke-linecap:round;stroke-width:.96747;fill:#4b97a6" d="m-317.14 15.009c-8.3996 0.0007-15.208 7.7205-15.208 17.242 0.004 3.0094 0.90418 6.1723 2.0049 8.5277s0.35742 2.7656-1.2142 3.5816c-10.076 4.1191-16.509 12.267-16.516 21.241 0 26.559-3.2933 24.025 30.933 24.025 34.227-0.00003 30.933 2.8636 30.933-24.025-0.007-8.383-5.6226-16.046-14.578-20.377-1.7559-1.5092-3.2991-3.591-2.6395-5.5229 0.65956-1.9319 1.4935-4.8531 1.4936-7.4504 0.0007-9.5225-6.8088-17.242-15.209-17.242z"/>
 </g>
</svg>
