<?xml version="1.0" encoding="UTF-8" standalone="no"?>
<svg xmlns:rdf="http://www.w3.org/1999/02/22-rdf-syntax-ns#" xmlns="http://www.w3.org/2000/svg" height="70.556mm" width="70.556mm" version="1.1" xmlns:cc="http://creativecommons.org/ns#" xmlns:dc="http://purl.org/dc/elements/1.1/" viewBox="0 0 250.00271 250.00271">
 <metadata>
  <rdf:RDF>
   <cc:Work rdf:about="">
    <dc:format>image/svg+xml</dc:format>
    <dc:type rdf:resource="http://purl.org/dc/dcmitype/StillImage"/>
    <dc:title/>
   </cc:Work>
  </rdf:RDF>
 </metadata>
 <path style="stroke-linejoin:round;stroke:#000;stroke-width:.35398;stroke-linecap:round;fill:#ebeced" d="m112.86 57.421 24.293-0.04425v-53.843l-24.293-0.0006554z"/>
 <path style="stroke-linejoin:round;stroke:#000;stroke-linecap:round;stroke-width:.35398;fill:#171c25" d="m74.787 13.733-21.036 12.148 27.062 46.877 21.017-12.187z"/>
 <path style="stroke-linejoin:round;stroke:#000;stroke-width:.35398;stroke-linecap:round;fill:#cbd0d3" d="m148.43 60.124 21.06 12.111 26.76-46.356-21.04-12.147z"/>
 <path style="stroke-linejoin:round;stroke:#000;stroke-linecap:round;stroke-width:.35398;fill:#21262f" d="m13.736 74.787 46.962 27.113 12.107-21.061-46.922-27.092z"/>
 <path style="stroke-linejoin:round;stroke:#000;stroke-width:.35398;stroke-linecap:round;fill:#b0b5ba" d="m178 80.377 12.18 21.013 46.09-26.603-12.15-21.039z"/>
 <path style="stroke-linejoin:round;stroke:#000;stroke-linecap:round;stroke-width:.35398;fill:#2b3039" d="m3.5363 137.15h54.154l-0.04425-24.293h-54.108z"/>
 <path style="stroke-linejoin:round;stroke:#000;stroke-width:.35398;stroke-linecap:round;fill:#9399a3" d="m193.48 137.15h52.991v-24.293l-53.027 0.40635z"/>
 <path style="stroke-linejoin:round;stroke:#000;stroke-linecap:round;stroke-width:.35398;fill:#353a43" d="m13.736 175.21 12.147 21.04 46.706-26.96-12.184-21.02z"/>
 <path style="stroke-linejoin:round;stroke:#000;stroke-width:.35398;stroke-linecap:round;fill:#7a808c" d="m178.29 169.79 45.831 26.463 12.147-21.04-45.871-26.482z"/>
 <path style="stroke-linejoin:round;stroke:#000;stroke-linecap:round;stroke-width:.35398;fill:#3f444d" d="m53.751 224.12 21.038 12.15 26.811-46.44-21.061-12.11z"/>
 <path style="stroke-linejoin:round;stroke:#000;stroke-width:.35398;stroke-linecap:round;fill:#646974" d="m148.71 190.35 26.508 45.913 21.036-12.147-26.528-45.952z"/>
 <path style="stroke-linejoin:round;stroke:#000;stroke-linecap:round;stroke-width:.35398;fill:#494e57" d="m112.86 193.21v53.259h24.293l0.11401-53.296z"/>
</svg>
